<svg width="440" height="440" viewBox="0 0 440 440" fill="none" xmlns="http://www.w3.org/2000/svg">
<path d="M401.596 115.156C385.55 87.3813 346.885 77.825 297.646 85.4838C279.661 39.0087 252.065 10.3125 220 10.3125C187.825 10.3125 160.146 39.2425 142.175 86.0063C139.274 85.5525 136.166 84.7 133.32 84.3563C86.7212 78.7738 53.0612 89.7462 38.4174 115.156C23.7462 140.58 31.1162 175.23 59.1937 212.767C61.0087 215.201 63.4287 217.58 65.3949 220.014C63.4287 222.434 61.0087 224.826 59.1937 227.26C31.1162 264.784 23.7462 299.447 38.4037 324.857C52.6899 344.754 75.7624 357.569 101.832 357.569C104.967 357.569 108.061 357.39 111.1 357.019L110.729 357.06C118.717 357.033 126.569 356.537 134.269 355.561L133.334 355.657C136.18 355.314 139.274 354.461 142.189 354.008C160.16 400.771 187.839 429.701 220.014 429.701C252.092 429.701 279.716 400.95 297.701 354.406C306.941 356.001 317.639 356.964 328.542 357.074H328.652C331.347 357.404 334.469 357.583 337.631 357.583C363.866 357.583 387.117 344.781 401.459 325.064L401.61 324.844C417.642 297.082 406.574 258.816 375.306 220C406.574 181.197 417.615 142.931 401.596 115.156ZM330.055 117.205C351.079 117.205 366.094 122.389 371.841 132.344C379.39 145.448 371.594 168.369 351.601 194.219C340.862 183.934 329.354 174.157 317.281 165.096L316.319 164.395C314.242 146.878 311.382 131.436 307.601 116.366L308.151 118.951C314.655 117.948 322.231 117.315 329.945 117.205H330.055ZM252.656 276.554C241.807 282.81 230.89 288.489 220.014 293.576C209.275 288.571 198.357 282.906 187.344 276.554C176.495 270.298 166.127 263.67 156.282 256.795C155.251 244.998 154.687 232.705 154.687 219.986C154.687 207.267 155.251 194.975 156.282 183.177C166.127 176.302 176.495 169.689 187.344 163.419V163.405C198.426 157.011 209.371 151.484 220.165 146.451C230.986 151.525 241.862 157.176 252.656 163.419V163.405C263.67 169.757 274.024 176.399 283.717 183.191C284.749 194.989 285.312 207.268 285.312 219.973C285.312 232.678 284.749 244.956 283.717 256.754C274.01 263.546 263.656 270.174 252.656 276.54V276.554ZM277.007 301.964C276.141 306.048 275.192 309.994 274.202 313.858C270.284 312.758 266.324 311.575 262.281 310.269C264.797 308.88 267.341 307.766 269.857 306.309C272.319 304.893 274.601 303.408 277.007 301.964ZM177.251 310.173C173.401 311.41 169.551 312.661 165.77 313.72C164.78 309.815 163.831 305.841 162.951 301.73C165.412 303.215 167.654 304.865 170.156 306.309C172.535 307.684 174.886 308.853 177.251 310.173ZM120.491 228.044C117.535 225.376 114.592 222.709 111.815 220C114.579 217.291 117.535 214.637 120.491 211.956C120.45 214.651 120.312 217.278 120.312 220C120.312 222.722 120.45 225.349 120.491 228.044ZM162.951 138.229C163.831 134.118 164.78 130.157 165.77 126.266C169.537 127.325 173.36 128.562 177.196 129.8C174.845 131.106 172.507 132.302 170.156 133.664C167.654 135.107 165.412 136.744 162.951 138.229ZM262.309 129.731C266.351 128.425 270.284 127.284 274.202 126.184C275.179 130.048 276.127 133.966 276.994 138.023C274.587 136.579 272.291 135.094 269.844 133.678V133.664C267.355 132.22 264.811 131.12 262.309 129.731ZM319.509 212.025C322.451 214.693 325.462 217.346 328.185 220C325.462 222.654 322.451 225.307 319.509 227.975C319.55 225.307 319.687 222.709 319.687 220C319.687 217.291 319.55 214.693 319.509 212.025ZM220 44.6875C235.139 44.6875 251.13 62.8375 263.519 93.1012C245.85 98.285 231.247 103.689 217.085 109.945L219.491 108.996C208.01 103.895 193.669 98.6562 178.942 94.2975L176.275 93.6238C188.691 63.03 204.779 44.6875 220 44.6875ZM68.1862 132.344C73.8099 122.595 89.1412 117.301 110.591 117.301C117.205 117.329 123.681 117.755 130.034 118.566L129.25 118.484C130.089 118.58 131.01 118.855 131.849 118.979C128.576 131.629 125.689 147.235 123.791 163.158L123.612 164.945C110.756 174.653 99.3987 184.36 88.6599 194.714L88.7837 194.604C88.1512 193.792 87.3124 192.995 86.7074 192.184C67.9524 167.118 61.0224 144.76 68.1724 132.358L68.1862 132.344ZM129.25 321.516C98.1199 325.229 75.3224 320.072 68.1724 307.656C61.0224 295.281 67.9524 272.91 86.7212 247.844C87.3262 247.032 88.1787 246.221 88.8112 245.41C99.4399 255.64 110.784 265.348 122.691 274.368L123.64 275.055C125.702 292.751 128.604 308.371 132.426 323.606L131.876 321.008C131.037 321.118 130.102 321.392 129.277 321.502L129.25 321.516ZM220 395.312C204.779 395.312 188.677 376.97 176.261 346.376C193.669 341.33 208.024 336.091 221.952 330.041L219.519 330.99C231.302 336.284 245.932 341.646 260.961 346.088L263.601 346.761C251.212 377.121 235.18 395.326 220.027 395.326L220 395.312ZM371.841 307.656C364.265 320.746 340.532 325.531 308.124 321.118C311.369 308.605 314.242 293.15 316.14 277.379L316.319 275.591C329.354 265.842 340.862 256.066 351.752 245.657L351.615 245.781C371.621 271.617 379.417 294.552 371.855 307.656H371.841ZM220 175.312C195.319 175.312 175.312 195.319 175.312 220C175.312 244.681 195.319 264.688 220 264.688C244.681 264.688 264.687 244.681 264.687 220C264.66 195.332 244.667 175.34 220 175.312ZM220 230.312C214.307 230.312 209.687 225.693 209.687 220C209.687 214.307 214.307 209.688 220 209.688C225.692 209.688 230.312 214.307 230.312 220C230.299 225.693 225.692 230.299 220 230.312Z" fill="#EC5863"/>
</svg>
